<svg id="Шар_2" data-name="Шар 2" xmlns="http://www.w3.org/2000/svg" viewBox="0 0 500 500"><defs><style>.cls-1,.cls-12,.cls-4,.cls-7,.cls-8,.cls-9{fill:none;}.cls-1,.cls-10,.cls-11,.cls-12,.cls-4,.cls-5,.cls-7,.cls-8,.cls-9{stroke:#3b3028;}.cls-1{stroke-linecap:round;stroke-linejoin:round;}.cls-2{fill:#514740;}.cls-10,.cls-11,.cls-3,.cls-5{fill:#3b3028;}.cls-10,.cls-11,.cls-12,.cls-4,.cls-5,.cls-7,.cls-8,.cls-9{stroke-miterlimit:10;}.cls-6{fill:#fff;}.cls-7{stroke-width:0.7px;}.cls-8{stroke-width:1.12px;}.cls-9{stroke-width:0.8px;}.cls-10{stroke-width:0.7px;}.cls-11{stroke-width:0.99px;}.cls-12{stroke-width:1.42px;}</style></defs><path class="cls-1" d="M103.68,131.73s34.42-1.73,51.95-23a19.15,19.15,0,0,1,4.11-3"/><path class="cls-1" d="M82.52,93.16S117,94.9,136.84,75.82"/><line class="cls-1" x1="159.74" y1="109.24" x2="149.53" y2="114.89"/><path class="cls-1" d="M99.81,134.63c-2.38-2.9-18.27-33.75-21.1-39.53a3.66,3.66,0,0,1-.29-2.71,1.53,1.53,0,0,1,1.81-1.22,2.94,2.94,0,0,1,2.29,2C82.61,93.42,85,98,88.2,104c5.41,10.11,13.18,24.33,16.26,29"/><polygon class="cls-2" points="89.15 104.89 89.17 104.97 89.16 104.97 88.46 104.22 88.46 104.22 88.46 104.22 88.48 104.25 88.53 104.29 88.61 104.38 88.5 104.25 88.47 104.22 88.46 104.22 88.46 104.22 89.08 104.89 89.09 104.89 89.1 104.89 89.15 104.89"/><path class="cls-2" d="M88.79,104.59l-.08-.11.16.22-.15-.18.17.21-.08-.12S88.76,104.54,88.79,104.59Z"/><path class="cls-2" d="M88.83,104.64c.09.11-.07-.13-.11-.21C88.83,104.61,88.66,104.39,88.83,104.64Z"/><path class="cls-2" d="M90.75,104.08v0S90.76,104.09,90.75,104.08Z"/><path class="cls-2" d="M90.84,102.92l-.14-.17c.17.37-.16.12-.15.31l0-.07c-.24,0-.31.47-.66.65v-.11c0,.07,0,.22,0,.2a.27.27,0,0,1,0-.13c-.08-.36-.17.24-.22,0a1.13,1.13,0,0,0,0,.31.77.77,0,0,0-.49.53,1.68,1.68,0,0,1-.08-.26c0,.61-.12.42-.27.39l.18.28c.1.16-.16-.35,0-.12l.06.14c.06.08-.16-.34-.06-.18s.08.18.09.19.09,0,0-.33c.11.31.07,0,.17.29a1.87,1.87,0,0,0-.05-.31c.26.11.38-.21.78-.2.1-.33.2-.3.34-.26s.32.14.4,0a.14.14,0,0,1,0,.06c0-.18.09-.29.2-.27l-.07-.27a.78.78,0,0,0,.8-.24,2.56,2.56,0,0,1,.54-.55c.44-.36,1.1-.68.51-1.48.06,0,.1,0,.11.06-.06-.19.2-.24.12-.41l.06,0c-.4-.48.27-.68-.21-1.13A3.79,3.79,0,0,0,93,98.63l.12.05c-.12-.41.61-.36.59-.71.39-.09-.22-1,.29-1,.6.23-.24-.82.38-.56,1,.35.75-.32.64-1,.49,0,.17-.9.91-.62-.17-.45.63.19.68,0l-.11-.12c.35.32-.3-.6.17-.09l0,0c.25.26-.47-.7-.18-.39l-.11-.14c0-.06.13.15.2.19s-.2-.25-.11-.19c.45.56,0-.19.49.44,0,0,.22.23.28.39s.09,0-.13-.28a5.58,5.58,0,0,0-.59-.76l.16.22-.22-.25c-.07,0-.31-.29-.45-.39l0,0c.17.27,0,.15,0,.13l-.1-.11c-.21-.23.32.51,0,.09a.48.48,0,0,1-.22.35c.12.17-.09,0,.19.33-.32-.31-.47-.33-.48-.29s-.06-.07-.05-.07c-.43-.38.29.46-.23,0,.32.38-.2,0,.16.43l-.2-.22c-.1.07-.32,0-.42.09.24.38-.29,0,.07.49-.14,0-.39-.15-.28.08l0-.06c0,.1-.11.21.11.53-.43-.39-.38-.28-.54-.37.14.23,0,.28.09.52-.2-.17,0,.14-.26-.12.34.72-.06.79-.7.68l0,0c.13.16.47.5.66.7l-.08-.07c0,.09-.3-.1-.28,0l-.09-.08c.1.15-.32-.1-.12.13l-.08-.06.09.12c-.11-.08-.26-.2-.21-.19-.41.35-.15,1.13-.46,1.54l-.1-.07.15.18a.36.36,0,0,1-.11-.06c-.25,0,0,.3-.08.39a1.22,1.22,0,0,0-.23-.1c.29.22-.48,0,.18.29a.89.89,0,0,1-.24-.09.82.82,0,0,1-.12.84c.61.3,0,.39.45.69l-.12,0c.38.36-.17.5-.16.76-.09.09,0,.21,0,.32L92,101c.5.42-.66.12-.12.58l-.2-.11c.3.18-.15,0,.37.3l-.17,0c.61.49-.42,0-.08.43l-.11-.09c.07.1.11.19,0,.15l-.08-.07c-.52-.19-.11.26-.21.37l-.2-.18c.2.25-.1.15,0,.31l-.09-.09.1.16-.18-.17C90.83,102.6,90.91,102.83,90.84,102.92Z"/><path class="cls-2" d="M89.84,103.6h0Z"/><path class="cls-2" d="M95.94,93.39l0,0S96,93.39,95.94,93.39Z"/><polygon class="cls-2" points="143.32 91.36 143.34 91.28 143.16 91.41 143.32 91.36"/><path class="cls-2" d="M142.66,91.47s0,.09-.06.13l.57-.34C143.25,90.91,142.6,91.7,142.66,91.47Z"/><path class="cls-2" d="M142.62,91.37c0-.18-.21,0-.29.09C142.49,91.31,142.47,91.63,142.62,91.37Z"/><path class="cls-2" d="M133.89,87.44h0S133.9,87.43,133.89,87.44Z"/><path class="cls-2" d="M131.19,87.66l-.1.2c.59-.2,1,.35,1.53.33l-.05.07c1.29.39,2.48.19,3.78.5a.65.65,0,0,1-.08.09c.08,0,.2-.16.26-.11a.12.12,0,0,1-.08.1c.09.42.85.14.84.52a.27.27,0,0,0,.27-.18,1,1,0,0,1,.34.54.75.75,0,0,1,0,.39c0,.1,0,.1,0,.09h-.05c-.07,0,0,0,0,0h0c.11-.06.09-.05.09,0a1.44,1.44,0,0,0,.22.07,3.59,3.59,0,0,0,1.39,0,.36.36,0,0,1,0,.28,2.31,2.31,0,0,1,1.36-.29c.18.1.37.23.55.35l.31.24.6.52c.11-.12,0-.19.18-.28-.13-.32-.65,0-.71-.35l.11-.11c-.11-.19-.25.3-.3,0s.12-.14.1-.17-.5-.32-.76-.47a4.21,4.21,0,0,0-.62,0,.7.7,0,0,0-.34.18c-.05-.34-.4-.05-.49-.38-.11.11-.2.07-.27.28l-.83-.24-.14,0,0,0h0l-.11.13c-.25.39-.53.23-.15.33l0,0h0l.31.14h0v0l0,0a1.55,1.55,0,0,0,0-.23,1.09,1.09,0,0,0,0-.44,1.9,1.9,0,0,0-.14-.4,1,1,0,0,0-.19-.25,1.65,1.65,0,0,0-.36-.32,2,2,0,0,0-.33-.19,9.27,9.27,0,0,0-1.16-.46c-.87.37-1.47-.55-2.34-.51a.14.14,0,0,1,0-.07,1.19,1.19,0,0,1-.93,0l-.32.19a10.6,10.6,0,0,0-1.23-.68l-.76-.38a2.24,2.24,0,0,1-.62-.39.25.25,0,0,1-.06-.32.67.67,0,0,1,.38-.17,2.55,2.55,0,0,1,.76,0c.22,0,.29.06.69.13a7.51,7.51,0,0,1,1.06.28l.26.09.15,0a1.33,1.33,0,0,1,.41.14,1,1,0,0,1,.08.15c-.06,0-.1,0-.12,0a1.05,1.05,0,0,1-.14.59,3.44,3.44,0,0,0-.24.75l0,0a1.79,1.79,0,0,1-.25.91c-.18.25-.33.31-.45.25l-.14-.07a1.18,1.18,0,0,0-.4-.16,1,1,0,0,0-.85.19,1.7,1.7,0,0,0-.64,1A13.81,13.81,0,0,0,128.67,95l-.12,0a6.12,6.12,0,0,1-.63,2c-.14.32-.28.65-.4,1a2.73,2.73,0,0,0-.21.83,4.31,4.31,0,0,0-.81.22c-.35.13-.69.29-1,.44a3.51,3.51,0,0,1-2.19.36c-.45-.32-.92-.14-1.47-.21a1.34,1.34,0,0,1-.4-.16c-.1-.08-.23-.26-.28-.29a.34.34,0,0,1-.07-.11.43.43,0,0,1-.1-.09c0-.08-.14-.14-.22-.24a1.89,1.89,0,0,0-1.37-.33,3.39,3.39,0,0,0-1.27.41,5.25,5.25,0,0,0-1.07.78l-1.2,1.11s0,0,0,0a8.66,8.66,0,0,0-1.18-2.42,4.46,4.46,0,0,1-.8-2.25c-.72-.48-.15-1.65-.61-2.34l-.13.09c.3-.46-.88-.32-.32-.78h0c.26-.29-.91,0-.57-.24l-.17,0c-.12-.15.17-.1.18-.26s-.3.11-.26,0c.64-.32-.34-.35.39-.7,0,.09.22-.28.47-.14,0-.1-.12-.37-.42-.2s-.69.15-.86.44l.26-.07a1.38,1.38,0,0,1-.27.2c.07.25-.27.44-.34.67h0c.34,0,.24.21.24.32l-.12.1c-.25.18.67,0,.16.16a7.36,7.36,0,0,1,.82,1.46c.22,0,.17.41.47.13a.77.77,0,0,0-.18.89s-.09,0-.08,0c-.4.52.63.1.12.66.47-.17.07.54.67.45a.63.63,0,0,1-.26.15c.21.48.29,1.07.45,1.48.56.17.2.89.9,1a3.45,3.45,0,0,0,.69,1.82l-.07,0c.12.22.24.48.37.68a4.28,4.28,0,0,0,1.27-1.18c.21.54.53.24.9.26a1.07,1.07,0,0,1,.18-.19l.1-.11a1.59,1.59,0,0,1,.24-.2,2.22,2.22,0,0,0,.52-.45c.15.22.26-.22.42.13a1.69,1.69,0,0,1,1.42-.79.17.17,0,0,1,.17.08s0-.11.11-.15a.24.24,0,0,1-.11.06h0l-.17.07h0v0l0,.13c0,.09.08.18.13.27a1.52,1.52,0,0,0,.32.44,3.21,3.21,0,0,0,.72.58l0,0c.36-.09.66-.55.89-.77,0,0,0,.1,0,.09.26,0,.48.36.75.28,0,.07,0,.07,0,.13.24-.18.52.3.79,0l0,.1.17-.15c0,.12,0,.31-.09.28a6.6,6.6,0,0,0,1.61-.25,6.82,6.82,0,0,0,.77-.23l.9-.31.57-.21.28-.1s.06,0,.07-.11l0-.15.23-1.14a11.42,11.42,0,0,1,.36-1.51L129,97l-.1-.44a.18.18,0,0,1,.11.07c.34-.44.13-1,.31-1.51.06,0,.16.12.25.07-.25-.43.58-.42-.06-.79a.33.33,0,0,1,.24.08,6.48,6.48,0,0,1,.92-2.87,1.62,1.62,0,0,1,.28-1.28c.25-.36.46-.65.67-1l0,.12c.12-.2.38-.09.71,0a1.1,1.1,0,0,0,.92-.27,3.15,3.15,0,0,0,1-1.6,1.82,1.82,0,0,0,.16-.66c0-.24,0-.46.09-.72l.17,0-.06-.13a8.1,8.1,0,0,1-1-1,1.13,1.13,0,0,0-1.28-.39l.12-.2c-.22.29-.55-.22-.58.37l-.13-.2c-.34.37-.51.27-.83.17s-.8-.18-.92.1l-.09-.13a.4.4,0,0,1-.49.2s0,0,0-.08a1,1,0,0,0-1,.38.57.57,0,0,0-.08.47,1.25,1.25,0,0,0,.29.44l-.33,0c.51.25.66.64,1.21.82l-.16,0,.39,0-.26.14A7.11,7.11,0,0,0,131.19,87.66Z"/><path class="cls-2" d="M136.45,88.84h0S136.43,88.84,136.45,88.84Z"/><path class="cls-2" d="M111.17,92.71a.22.22,0,0,1,0-.08S111.17,92.69,111.17,92.71Z"/><polygon class="cls-2" points="96.72 112.46 96.72 112.46 96.72 112.47 96.72 112.46"/><path class="cls-2" d="M96.71,112.46l-.08-.07c.1.09.09.07.09.07h0Z"/><path class="cls-2" d="M96.74,112.48s0,0,0,0l-.14-.15C96.75,112.49,96.6,112.35,96.74,112.48Z"/><path class="cls-2" d="M100.16,112.6h0S100.15,112.61,100.16,112.6Z"/><path class="cls-2" d="M101.42,111.85l0-.22c-.27.36-.44-.08-.68.06l0-.08a3.66,3.66,0,0,0-1.68.19l0-.11c0,.07-.09.21-.12.18a.19.19,0,0,1,0-.12c-.07-.38-.37.19-.41-.1a.46.46,0,0,0-.06.3,2.22,2.22,0,0,0-1.27.37.94.94,0,0,1,0-.27c-.3.6-.52.43-.62.39l.08.11a.5.5,0,0,0,.06.08l0,.06,0,0c0-.08-.06-.16,0,0l.05.14c0,.09-.13-.36,0-.18s0,.18.06.19.15,0,.23-.34c0,.33.14,0,.2.32,0-.13.07-.1.08-.32.49.17,1.11-.07,1.72,0,.38-.58.61.22,1,.07a.17.17,0,0,1,0,.07.33.33,0,0,1,.43-.09l.16-.24c.72.68,1.61.43,2.44.74a7.39,7.39,0,0,0,1.43.33,1.64,1.64,0,0,0,1.43-.62c0,.06,0,.09,0,.12.26-.18.6,0,.83-.27l0,.06c.46-.7,1.37-.81,1.37-1.65a3.11,3.11,0,0,0,1-2.15l.13,0c-.13-.65.55-1.19.4-1.82.34-.55-.55-1.37,0-1.92.69-.17-.38-1.11.37-1.22,1.18-.28.93-1,1.08-2.05.37-.14.54-.47.79-.75a.88.88,0,0,1,1-.37c.13-.56.84.24,1.1,0l-.05-.15c.23.42.11-.72.35-.05v0c.13.33,0-.86.1-.45l0-.18c.08-.06,0,.2.13.25s0-.31,0-.22c.12.71.19-.19.29.62,0,0,.09.3,0,.48s.11,0,.08-.31a2.89,2.89,0,0,0-.07-1v.26c0-.26,0-.13-.06-.32-.13,0-.19-.41-.32-.55s0,0,0,0c0,.32-.13.15-.19.11l0-.14c-.09-.3,0,.62-.09.09a2.6,2.6,0,0,1-.78.35c0,.21-.22.06,0,.4-.21-.4-.46-.42-.52-.37s0-.08,0-.07c-.37-.46,0,.55-.38,0,.2.46-.32,0-.12.54a1.53,1.53,0,0,1-.16-.26c-.23.12-.59.13-.8.25.1.47-.52.12-.26.71-.18,0-.53,0-.5.26l0-.06a.62.62,0,0,0-.1.76c-.48-.33-.45-.17-.66-.21.13.28-.13.46,0,.78-.24-.11,0,.21-.34,0,.3.9-.16,1.36-.92,1.78l0,0c.17.15.59.38.83.54,0,0-.1,0-.09,0s-.36.11-.32.24l-.12-.05c.13.14-.35.12-.09.32l-.1,0,.12.11c-.13,0-.31-.08-.26-.11-.38,1,.24,2,.07,2.84l-.12,0,.2.18-.12,0c-.24.17.08.42,0,.6a1,1,0,0,0-.25-.06c.3.22-.49.08.19.34a.8.8,0,0,1-.24-.07.94.94,0,0,1-.4,1c.34.66-.38.59-.27,1.2l-.09-.09a.59.59,0,0,1-.45.58,5,5,0,0,0-.72.22c-.21,0-.3.19-.51.24l0-.16c-.27.69-.77-.46-1.09.23l0-.22c0,.34-.22-.12-.19.47l-.07-.18c-.28.77-.46-.37-.79.11l0-.13c-.09.1-.2.18-.25,0a.93.93,0,0,1,0-.1c-.21-.57-.55,0-.83-.05l.06-.25c-.17.28-.37,0-.56.08l0-.12-.11.16,0-.24C101.89,111.68,101.65,111.86,101.42,111.85Z"/><path class="cls-2" d="M99.09,111.75h0S99.09,111.74,99.09,111.75Z"/><path class="cls-2" d="M114.56,99.18l0,0S114.57,99.19,114.56,99.18Z"/><polygon class="cls-2" points="104.6 112.09 104.53 112.12 104.73 112.06 104.6 112.09"/><path class="cls-2" d="M105.07,112l.13-.06-.58.16C104.33,112.28,105.27,111.92,105.07,112Z"/><path class="cls-2" d="M105,112.07c-.12.08.14,0,.23,0C105.06,112.09,105.3,112,105,112.07Z"/><path class="cls-2" d="M106.09,114.3h0Z"/><path class="cls-2" d="M107.21,114.53l.21-.08c-.41,0-.09-.24-.3-.29l.08,0c0-.33-.5-.46-.78-.69l.11,0c-.08,0-.21.06-.2,0l.12,0c.31-.2-.29-.09,0-.24a1.1,1.1,0,0,0-.29.1,1.71,1.71,0,0,0-.71-.54,1,1,0,0,1,.25-.11c-.63,0-.5-.28-.5-.52a2.68,2.68,0,0,1-.3.12c-.16.14.4,0,.16.15l-.14,0c-.07.08.36-.14.2,0a.71.71,0,0,1-.19.08c.1.07,0,.22.38.17-.29.14,0,.1-.24.26a1,1,0,0,0,.31-.07c0,.39.41.61.52,1,.65-.09,0,.39.3.49l-.06,0c.17,0,.28.06.24.16l.27,0a.83.83,0,0,0,0,.78l.14.32a.2.2,0,0,1,0,.2.22.22,0,0,1-.14.16c-.08.05-.11,0-.17.13a.82.82,0,0,0,.27,1c-.06,0-.1,0-.12,0,.1.18-.14.31,0,.49h-.06a.68.68,0,0,1,.22.63.51.51,0,0,0,.36.55,1.35,1.35,0,0,0,.27.66,2.17,2.17,0,0,0,.55.44l-.1.07c.23,0,.17.28.1.43s-.21.26-.14.43c-.17.13,0,.31.09.54s.2.46-.06.56c-.64,0,.44.77-.24.69-1.05-.05-.69.57-.44,1.26-.5.15,0,1-.79.92.26.41-.68,0-.69.23l.13.09c-.43-.23.43.52-.16.14l0,0c-.31-.18.61.58.26.35l.14.11c0,.07-.16-.12-.24-.13s.25.2.15.16c-.58-.44.05.19-.59-.31,0,0-.27-.16-.37-.31s-.09,0,.19.25a4.5,4.5,0,0,0,.76.59l-.2-.17.27.19c.07,0,.38.2.54.26l0,0c-.23-.22,0-.14,0-.13l.12.08c.26.17-.44-.42,0-.09a.58.58,0,0,1,.15-.43c-.15-.13.08-.08-.25-.28.38.23.53.2.54.16s.07.05.06.05c.51.26-.38-.38.23,0-.4-.3.21,0-.24-.39l.25.16c.08-.1.32-.13.4-.22-.31-.32.3-.09-.16-.49.14,0,.42,0,.26-.16l.06,0c0-.11.08-.24-.21-.5a1.27,1.27,0,0,0,.62.21c-.19-.2,0-.29-.2-.51.24.12,0-.13.29,0-.49-.65-.1-.85.57-1l0,0c-.17-.13-.58-.37-.82-.52,0,0,.1,0,.09,0s.33,0,.29-.08l.11.06c-.14-.12.34,0,.08-.18l.1,0-.12-.09c.12,0,.3.11.25.12a1.3,1.3,0,0,0,.06-1,10,10,0,0,1-.22-1.09h.12l-.24-.08.12,0a.19.19,0,0,0-.08-.28c-.1,0-.22-.09-.25-.17a1.27,1.27,0,0,0,.22-.13c-.37.09.22-.49-.39-.1a1.12,1.12,0,0,1,.19-.16c-.35,0-.42-.15-.39-.37-.33.06-.38,0-.4-.13s0-.18-.3-.25l.13,0c-.49-.22,0-.56-.06-.82.06-.11-.08-.21-.07-.34l.16,0c-.57-.34.63-.27,0-.65l.21.08c-.32-.13.15-.08-.41-.25l.18,0c-.35-.18-.25-.19-.1-.24s.33-.13.11-.21h.14c-.08,0-.23-.09-.1-.13a.33.33,0,0,1,.1,0c.5-.23-.19-.34-.22-.46l.25-.08c-.31,0-.11-.2-.27-.24l.11,0-.18,0,.23-.1C107.53,114.67,107.29,114.64,107.21,114.53Z"/><path class="cls-2" d="M106.45,113.4h0Z"/><path class="cls-2" d="M106.5,126.05l0,0S106.48,126,106.5,126.05Z"/><polygon class="cls-2" points="132.92 111.71 133.62 111.63 133.62 111.63 133.62 111.63 133.62 111.63 133.62 111.63 133.61 111.63 133.6 111.64 133.55 111.64 133.59 111.64 133.6 111.64 133.61 111.63 133.62 111.63 133.62 111.63 133.62 111.63 133.62 111.63 133.62 111.63 132.92 111.71"/><path class="cls-2" d="M133.37,111.63l.14,0-.13,0h.12Z"/><path class="cls-2" d="M133.32,111.61l.21.08C133.33,111.62,133.62,111.67,133.32,111.61Z"/><path class="cls-2" d="M130.44,114.14v0S130.43,114.13,130.44,114.14Z"/><path class="cls-2" d="M129.84,115.57l0,.24c.13-.52.52-.28.65-.55l0,.07c.57-.23.85-.84,1.24-1.31l.05.11c0-.08-.08-.22,0-.22a.3.3,0,0,1,.06.11c.31.24.16-.4.39-.21a.46.46,0,0,0-.16-.27,2.61,2.61,0,0,0,.76-1.2.79.79,0,0,1,.21.19c-.16-.67.21-.76.35-.86l-.31-.11c-.1,0,0,0,.06.06s.1.13,0,.08l-.12-.09c-.11,0,.31.22.12.15a.62.62,0,0,1-.17-.11c0,.12-.22.14,0,.49-.26-.21-.13.11-.39-.08.06.12,0,.12.14.3-.53.25-.85.87-1.4,1.21.09.7-.63.26-.82.63a.09.09,0,0,1,0-.06c0,.2-.14.35-.3.35l0,.3a3.68,3.68,0,0,0-.56,0,13.07,13.07,0,0,1-1.48-.57c-.89-.48-1.47-1.17-2.63-.84,0-.05,0-.08.07-.09-.29,0-.38-.33-.6-.34l0,0a.46.46,0,0,1-.35,0h-.1c.11,0,0-.07,0-.11a1.09,1.09,0,0,0-.19-.39,1,1,0,0,0-1.12-.46,5.27,5.27,0,0,0-2.46-.46l0-.13c-.69.16-1.25-.56-1.92-.43-.64-.36-1.46.56-2.09.11-.36-.67-1,.59-1.37-.09-.71-1.05-1.55-.52-2.42,0-.71-.43-1.55.37-2.2-.41-.39.41-.65-.63-1-.54V110c-.09-.48-.38.63-.39-.08l0,0c0-.37-.26.81-.26.39l0,.17c-.09,0,0-.2,0-.28s0,.32-.09.22c.07-.72-.23.13-.15-.68.05,0,0-.32.09-.47,0-.09-.18-.07-.2.28a3,3,0,0,0-.09,1l0-.27c0,.27,0,.14,0,.34.11,0,.08.43.15.6v0c.09-.31.15-.11.19-.06v.15c0,.31.2-.59.11-.06a1.59,1.59,0,0,1,.78,0c.06-.2.21,0,.19-.35,0,.45.2.58.28.57s0,.09,0,.07c.08.59.23-.51.28.2.08-.49.23.19.37-.38a1.28,1.28,0,0,1,0,.29c.24,0,.48.25.68.29.22-.41.4.25.62-.34.11.14.28.42.48.2l0,.07a.62.62,0,0,0,.62-.38c0,.58.09.47.15.66.16-.25.42-.14.64-.36,0,.27.18-.09.14.29.64-.68,1.29-.34,1.83.28v0c.09-.2.23-.66.34-.92,0,0,0,.1,0,.09s.18.33.29.27a.5.5,0,0,1,0,.13c.12-.16.18.33.33,0v.1l.1-.13c0,.13,0,.32-.08.27.91.23,1.95-.32,2.88-.12l0,.11.2-.19a.68.68,0,0,1,0,.12c.2.24.48-.08.69,0a.69.69,0,0,0,0,.25c.22-.32.18.49.39-.21a1.23,1.23,0,0,1,0,.25,1.61,1.61,0,0,1,1.34.2c.57-.5.72.17,1.27-.08l-.07.11c.34-.06.49.15.51.44a1.13,1.13,0,0,0,.56.75c.18.17.39.13.6.23l-.07.14c.62-.37.54.87,1.19.41l-.11.19c.19-.29.19.21.38-.35v.19c.54-.62.35.52.85.16l-.07.12c.12-.07.25-.12.27,0s0,0-.06.08c.09.61.59.14.86.24l-.11.24c.23-.25.4.1.63,0l-.05.12.14-.14-.06.24a1.55,1.55,0,0,0,.68,0Z"/><path class="cls-2" d="M131.86,114h0S131.86,114,131.86,114Z"/><path class="cls-2" d="M108.87,111.24a.08.08,0,0,1,0,0S108.86,111.23,108.87,111.24Z"/><polygon class="cls-2" points="128.52 115.08 128.45 115.11 128.63 115.02 128.52 115.08"/><path class="cls-2" d="M128.93,114.89l.13-.07-.53.26C128.23,115.25,129.13,114.77,128.93,114.89Z"/><path class="cls-2" d="M128.88,114.92c-.12.07.13,0,.22-.09C128.9,114.92,129.15,114.78,128.88,114.92Z"/><path class="cls-2" d="M129.21,115.69h0Z"/><path class="cls-2" d="M130.18,115.92h.22c-.39,0,0-.13-.18-.19h.08c.07-.17-.3-.29-.49-.4h-.09l.12,0c.36-.09-.25,0,0-.11a1.87,1.87,0,0,0-.31,0,.64.64,0,0,0-.5-.16l.26-.09c-.6.13-.39,0-.33-.11l-.3.15c-.17.1.36-.14.11,0l-.14.06c-.08.05.35-.15.18-.06l-.19.08c.07,0-.05.07.31,0-.31.12,0,0-.29.15l.3-.09c-.14.16.19.2.2.33.63,0-.11.16.11.21h-.07c.16,0,.24,0,.17.08h.27c-.54.22-.17.42-.4.61s-.64.34.14.7l-.12,0c.11.09-.12.11,0,.2h-.06c.49.25-.14.31.38.58a.78.78,0,0,0,0,.65l-.12,0c.21.23-.47.2-.33.42-.32.07.59.55.17.6-.62-.09.59.46,0,.35-1-.11-.45.27,0,.66-.39.07.39.54-.34.49.4.22-.58,0-.49.14l.15,0c-.47-.07.62.24-.07.1h0c-.35,0,.81.22.4.14l.17,0s-.2,0-.27,0l.21.05c-.35-.06-.32,0-.29,0s0,0-.34.14c0-.07-.26.23-.47.09-.08.1.09.37.36.13l.81-.53-.22.14.3-.14c.08.05.47,0,.63.17h0l-.15.07s0,0,0,0h0l-.23,0h.05l.28,0,.15,0c.3,0-.59-.13-.07,0-.12,0-.12-.06-.1-.13-.19-.07,0,0-.35-.14.43.12.55.11.54.09l.07,0c.55.15-.5-.21.18,0-.47-.16.17,0-.38-.21l.29.09s.22,0,.25-.09c-.39-.19.22,0-.33-.27.13,0,.38,0,.17-.08l.07,0c0-.06,0-.13-.37-.29a2.52,2.52,0,0,0,.63.16c-.24-.12-.15-.16-.36-.29.25.08-.09-.07.27,0-.65-.38-.35-.46.23-.44h0l-.89-.36.09,0c-.06,0,.31.05.25,0l.12,0c-.15-.08.31,0,0-.08l.1,0-.13-.06.26.09c.2-.2-.37-.64-.21-.85l.12,0-.2-.11.12,0c.23,0-.1-.16,0-.21l.25.07c-.32-.13.46.05-.24-.16l.25.06c-.2-.18-.15-.3,0-.4-.61-.25,0-.23-.5-.45l.13,0c-.41-.23.09-.28,0-.44s-.08-.12-.08-.18l.16,0c-.59-.19.59-.14-.08-.34l.22,0c-.34,0,.13,0-.46-.11h.18c-.76-.15.37-.09-.12-.23l.14,0c-.11,0-.19-.06-.06-.07h.1c.56,0,0-.16,0-.23l.26,0c-.3,0,0-.11-.16-.17h.12l-.17,0h.25C130.42,116.05,130.21,116,130.18,115.92Z"/><path class="cls-2" d="M129.84,115.31h0S129.86,115.31,129.84,115.31Z"/><path class="cls-2" d="M129.85,121.47a.1.1,0,0,0,0-.06S129.84,121.45,129.85,121.47Z"/><polygon class="cls-2" points="129.75 104.32 129.81 104.36 129.66 104.23 129.75 104.32"/><path class="cls-2" d="M129.43,104l-.11-.09.44.4C130,104.5,129.25,103.85,129.43,104Z"/><path class="cls-2" d="M129.48,104c.11.08-.1-.1-.17-.16C129.47,104,129.24,103.83,129.48,104Z"/><path class="cls-2" d="M130,103.16v0S130,103.18,130,103.16Z"/><path class="cls-2" d="M129.43,102.36l-.17-.14c.28.29-.07.08,0,.23l-.06-.06c-.14,0,.07.38.12.58l-.09-.07a.8.8,0,0,1,.14.14l-.09-.08c-.3-.22.13.21-.1,0a1.9,1.9,0,0,0,.23.2.92.92,0,0,0,.16.53,1.75,1.75,0,0,1-.22-.18c.4.45.16.37,0,.38l.25.21c.17.1-.26-.29,0-.13l.11.1c.09,0-.29-.24-.13-.13s.15.12.16.12.11,0-.15-.28c.26.2,0,0,.29.16a1.81,1.81,0,0,0-.23-.21c.23,0,.07-.32.18-.41-.44-.46.19,0,.08-.24l.05,0c-.1-.12-.14-.19-.06-.17l-.19-.19c.28.1.36.06.43,0s.15-.24.34-.3a2.62,2.62,0,0,0,.58-.29c.14-.12.17-.3-.23-.48l.14,0c-.1-.08.23-.12.12-.2h.08c-.32-.11-.15-.19-.07-.28s-.17-.11-.52-.11a.89.89,0,0,0-.61-.34l.12,0c-.35,0,.13-.43-.19-.45.05-.34-.76.29-.6-.08.35-.52-.63.38-.26-.15.51-.84,0-.49-.55-.18.11-.36-.6.18-.24-.44-.36.28.25-.52.1-.48l-.1.12c.3-.37-.49.45,0-.09l0,0c.23-.28-.59.6-.31.28l-.12.13s.13-.15.17-.21-.22.23-.16.15c.48-.54-.14.08.4-.52,0,0,.2-.24.33-.35s0-.06-.23.2-.47.49-.64.72l.18-.2-.22.25s-.26.33-.35.47l0,0c.22-.22.1-.07.08,0l-.09.11c-.21.23.42-.43.06,0,.13-.06.17,0,.21,0,.14-.15,0,0,.28-.26-.29.34-.34.45-.31.45l0,.05c-.37.45.38-.37-.07.17.34-.36-.07.15.34-.27l-.2.23s0,.21,0,.26c.32-.3-.06.2.36-.22-.06.11-.2.33,0,.17l0,.06s.11,0,.39-.25a2.83,2.83,0,0,0-.4.51c.2-.18.19-.08.39-.23-.18.2.1-.06-.16.22.59-.47.53-.17.24.33l0,0,.68-.67-.06.07c.06,0-.18.25-.11.22l-.09.09c.13-.11-.17.26.05,0l-.07.08.11-.1-.19.2c0,.06.06.08.13.08a1.46,1.46,0,0,0,.16-.09c.13-.07.3-.11.3,0l-.11.07.21-.1-.12.06c-.18.12.18,0,.15,0l-.26.11c.37-.13-.45.2.31-.08l-.27.1c.29-.07.33,0,.23,0,.84-.11.14,0,.88,0h0c.21.07-.33.15-.27.21-.09,0,.08.07.06.11l-.2,0c.34.08.15.1,0,.09s-.32,0,0,.11l-.23-.06c.36.11-.15,0,.46.17l-.19,0c.74.31-.42,0,0,.19l-.13-.06c.09,0,.15.11,0,.07l-.09,0c-.54-.22,0,.11-.08.16l-.22-.15c.24.19,0,.07.07.17l-.1-.07.13.12-.2-.16S129.44,102.31,129.43,102.36Z"/><path class="cls-2" d="M129.31,103Z"/><path class="cls-2" d="M127.3,100l0,0S127.3,99.94,127.3,100Z"/><polygon class="cls-2" points="130.78 102.61 130.8 102.69 130.77 102.48 130.78 102.61"/><path class="cls-2" d="M130.81,102.14l0-.14,0,.6C130.91,102.92,130.74,101.92,130.81,102.14Z"/><path class="cls-2" d="M130.84,102.19c.06.13,0-.15,0-.24C130.88,102.16,130.78,101.9,130.84,102.19Z"/><path class="cls-2" d="M133.85,101.71a0,0,0,0,0,0,0Z"/><path class="cls-2" d="M134.61,100.73v-.23c-.14.4-.33,0-.49.19v-.08c-.42-.07-.78.33-1.17.53V101c0,.08,0,.22,0,.2a.24.24,0,0,1,0-.12c-.12-.36-.23.25-.31,0a.66.66,0,0,0,0,.31,2.23,2.23,0,0,0-.91.56,1.45,1.45,0,0,1-.05-.27c-.18.63-.49.44-.77.39,0,.16.06.16.06.32s.09-.4.21-.14l0,.16c.07.08-.05-.38,0-.2s0,.19,0,.2.25,0,.31-.34c.07.32.13,0,.22.29a.87.87,0,0,0,0-.32c.45.12.86-.24,1.31-.26.16-.65.47.09.7-.14,0,0,0,0,0,.07.07-.16.18-.24.28-.17l.07-.27c.61.52,1.2.12,1.8.36s1.22.64,1.95-.16a.2.2,0,0,1,0,.12c.21-.12.38.12.57,0v.06c.47-.52,1,.07,1.42-.56a1.77,1.77,0,0,0,1.55-.8l.09.09c.06-.28.25-.41.43-.61a.74.74,0,0,0,.28-.68c.36-.48-.63-1-.22-1.47.31-.13.16-.28,0-.48s-.27-.41.07-.45c.54-.14.7-.29.72-.56a7.39,7.39,0,0,0-.14-1.06c.56-.18.34-1.2,1.21-1-.09-.51.73.14.85-.1l-.09-.13c.33.35-.19-.67.24-.1v0c.22.28-.34-.78-.1-.43l-.08-.16c0-.07.11.17.19.21s-.16-.29-.08-.22c.37.62.06-.21.46.5,0,0,.18.25.21.43s.1,0-.06-.31a4,4,0,0,0-.45-.85l.11.24a2.4,2.4,0,0,1-.18-.28c-.09,0-.29-.32-.43-.43v0c.12.3,0,.16-.08.14l-.09-.12c-.18-.25.23.58,0,.11a1.21,1.21,0,0,1-.43.44c.09.18-.14.07.13.36-.3-.33-.5-.33-.53-.27s0-.08,0-.07c-.45-.38.22.5-.3,0,.3.4-.25,0,.08.49a1.33,1.33,0,0,1-.2-.22c-.15.12-.43.13-.57.24.21.4-.39.12,0,.61-.16,0-.46,0-.36.22l0,0a.48.48,0,0,0,.08.63c-.5-.28-.45-.15-.64-.19.16.23,0,.39.11.65-.25-.09,0,.18-.31,0,.47.77.06,1.09-.56,1.59h0a8.44,8.44,0,0,0,.93.31l-.1,0c.06.09-.32.14-.25.22l-.13,0c.17.08-.31.12,0,.22H141l.14.06c-.13,0-.32,0-.28,0-.16.62.47,1.31.21,1.75l-.1-.06a1.14,1.14,0,0,1,.16.15l-.11-.06c-.22,0,0,.23-.07.29s-.13-.13-.19-.17c.19.28-.35-.31.09.27l-.16-.2c0,.28-.25.41-.54.33-.1.7-.48.15-.71.68v-.13c-.34.48-.75,0-1.12.07-.15,0-.26.1-.42.1v-.16c-.29.6-.54-.58-.85.08l0-.22c-.05.34-.16-.12-.17.46l0-.18c-.21.77-.34-.36-.58.14v-.14c-.06.1-.13.19-.18.06a.87.87,0,0,0,0-.1c-.19-.55-.41.06-.61,0l0-.26c-.1.3-.28,0-.41.16v-.12l-.06.17v-.24C134.93,100.48,134.78,100.69,134.61,100.73Z"/><path class="cls-2" d="M132.93,101.11h0S132.93,101.09,132.93,101.11Z"/><path class="cls-2" d="M144.47,92.42l.05,0S144.49,92.43,144.47,92.42Z"/><path class="cls-1" d="M99.81,134.63c.16.07,1.7,3.33,4,2.43,2.94-1.15.61-4.1.61-4.1"/><path class="cls-1" d="M164.37,104.37c-3.77-4.14-10.64-13.44-17.56-22.58-4.1-5.41-7.16-9.53-7.29-9.77A2.92,2.92,0,0,0,137,70.41a1.53,1.53,0,0,0-1.6,1.49,3.73,3.73,0,0,0,.71,2.63c3.69,5.26,21.08,28.42,23.88,30.92,0,0-.61,6.07,2.84,5.63S164.37,104.37,164.37,104.37Z"/><path class="cls-1" d="M141.34,74.51s3-1.23,4-.45,2.95,9.68,2.95,9.68"/><path class="cls-3" d="M56.33,255.48a1.88,1.88,0,0,0,.54,1.31l-1.31-1.21-4.05-3.77a1.84,1.84,0,0,1,2.51-2.7l4,3.77,1.4,1.29a1.85,1.85,0,0,0-3.14,1.31Z"/><path class="cls-3" d="M65.42,260.5a1.84,1.84,0,0,1-3.1,1.36l-4-3.77-1.4-1.3a1.84,1.84,0,0,0,1.3.54,1.86,1.86,0,0,0,1.29-.52l0-.06a1.82,1.82,0,0,0,.51-1.27,1.84,1.84,0,0,0-.54-1.3l1.3,1.21,4,3.76A1.84,1.84,0,0,1,65.42,260.5Z"/><path class="cls-3" d="M55.56,255.58l1.31-1.4a1.84,1.84,0,0,0-.54,1.3,1.88,1.88,0,0,0,.54,1.31,1.84,1.84,0,0,0,1.3.54,1.86,1.86,0,0,0,1.29-.52l-1.19,1.28-3.77,4.05a1.84,1.84,0,0,1-1.35.59,1.81,1.81,0,0,1-1.25-.49,1.85,1.85,0,0,1-.1-2.61Z"/><path class="cls-3" d="M64.55,251.33l-3.77,4.06-1.27,1.36a1.82,1.82,0,0,0,.51-1.27,1.84,1.84,0,0,0-.54-1.3h0a1.85,1.85,0,0,0-2.6,0l1.2-1.3,3.77-4.06a1.85,1.85,0,0,1,2.71,2.51Z"/><path class="cls-3" d="M146.76,404.75c-3.08-1.92-6.15-3.94-9.12-6l1.16-1.65c2.94,2.06,6,4.07,9,6ZM364,402l-1.11-1.68c3-2,6-4,8.85-6.17l1.2,1.61C370,397.92,367,400,364,402Zm-235.14-9.78c-2.85-2.25-5.67-4.6-8.39-7l1.33-1.51c2.69,2.37,5.49,4.7,8.31,6.92Zm252.65-3.17-1.28-1.55c2.76-2.29,5.49-4.69,8.11-7.12l1.37,1.48C387.07,384.31,384.31,386.73,381.52,389.05Zm-269-11.26c-2.58-2.55-5.12-5.2-7.55-7.89l1.5-1.34c2.4,2.65,4.91,5.28,7.47,7.8Zm285-3.57L396,372.83c2.49-2.58,4.93-5.27,7.26-8l1.53,1.31C402.48,368.9,400,371.61,397.5,374.22ZM97.85,361.61c-2.27-2.82-4.49-5.74-6.6-8.68l1.64-1.17c2.08,2.91,4.28,5.8,6.53,8.59Zm313.85-3.92-1.6-1.22c2.17-2.85,4.29-5.8,6.3-8.76l1.67,1.13C416,351.83,413.9,354.81,411.7,357.69ZM85.16,343.89c-1.93-3.06-3.8-6.22-5.55-9.38l1.77-1c1.73,3.13,3.58,6.25,5.49,9.28Zm338.75-4.26-1.73-1c1.83-3.07,3.6-6.25,5.24-9.43l1.8.93C427.55,333.31,425.76,336.52,423.91,339.63ZM74.63,324.82c-1.57-3.26-3-6.61-4.41-9.95l1.87-.76c1.34,3.3,2.81,6.62,4.35,9.85ZM434,320.27l-1.85-.82c1.46-3.28,2.84-6.64,4.1-10l1.89.71C436.81,313.55,435.42,317,434,320.27ZM66.42,304.67c-1.17-3.43-2.24-6.93-3.19-10.42l1.94-.53c.94,3.45,2,6.92,3.16,10.31Zm375.2-4.83-1.93-.6c1.06-3.43,2-6.93,2.87-10.41l2,.48C443.66,292.82,442.69,296.36,441.62,299.84ZM60.67,283.66c-.75-3.54-1.39-7.15-1.92-10.73l2-.29c.52,3.54,1.16,7.11,1.9,10.61Zm386.11-5-2-.36c.63-3.52,1.17-7.11,1.6-10.66l2,.24C448,271.46,447.42,275.09,446.78,278.65ZM58.89,240.4l-2-.07c.11-3.62.34-7.28.67-10.87l2,.18C59.22,233.19,59,236.81,58.89,240.4Zm387.58-15.15c-.41-3.55-.93-7.14-1.56-10.66l2-.35c.64,3.56,1.17,7.19,1.58,10.78ZM60.84,218.94l-2-.3c.54-3.57,1.2-7.18,2-10.72l2,.42C62,211.84,61.38,215.41,60.84,218.94ZM442.71,204c-.83-3.48-1.78-7-2.83-10.4l1.93-.58c1.05,3.46,2,7,2.86,10.51ZM65.35,197.88l-1.94-.54c1-3.49,2.06-7,3.24-10.43l1.9.65C67.39,191,66.31,194.42,65.35,197.88Zm371.09-14.43c-1.24-3.35-2.6-6.71-4-10l1.84-.81c1.46,3.31,2.84,6.7,4.09,10.09Zm-364.07-6-1.87-.76c1.38-3.35,1.82-4.79,3.4-8l1.82.87C74.16,172.75,73.73,174.15,72.37,177.46Zm355.4-13.71c-1.64-3.18-3.38-6.36-5.2-9.44l1.73-1c1.84,3.11,3.61,6.32,5.26,9.54Zm-10.95-18.57c-2-3-4.1-5.93-6.26-8.78l1.61-1.22c2.18,2.89,4.31,5.87,6.33,8.88ZM93.35,139.85l-1.63-1.17c2.11-2.93,3.48-4.62,5.76-7.43l1.57,1.27C96.79,135.29,95.45,137,93.35,139.85ZM333,75.7c-3.27-1.46-6.63-2.85-10-4.12l.72-1.88c3.38,1.29,6.78,2.69,10.09,4.17ZM177.23,73.23l-.76-1.86c3.36-1.37,6.79-2.66,10.22-3.85l.66,1.9C184,70.6,180.55,71.88,177.23,73.23ZM312.84,68c-3.42-1.1-6.91-2.11-10.37-3L303,63c3.5.91,7,1.94,10.48,3ZM197.65,66.17l-.56-1.93c3.49-1,7-1.91,10.58-2.72l.45,2C204.62,64.28,201.1,65.19,197.65,66.17Zm94.29-3.64c-3.51-.72-7.1-1.35-10.64-1.88l.29-2c3.59.54,7.2,1.17,10.75,1.9Zm-73.23-1.17-.34-2c3.57-.61,7.2-1.14,10.8-1.56l.24,2C225.84,60.24,222.24,60.76,218.71,61.36Zm232,182.82-2,.09c-.16-3.57-.43-7.19-.81-10.74l2-.22C450.23,236.91,450.5,240.57,450.66,244.18Z"/><path class="cls-3" d="M446.82,255.3a1.87,1.87,0,0,0,.49,1.33L446,255.37l-3.89-3.93a1.84,1.84,0,0,1,2.61-2.6l3.9,3.93,1.35,1.34a1.87,1.87,0,0,0-1.28-.58,1.82,1.82,0,0,0-1.32.49A1.84,1.84,0,0,0,446.82,255.3Z"/><path class="cls-3" d="M455.7,260.67a1.8,1.8,0,0,1-.54,1.24,1.85,1.85,0,0,1-2.61,0l-3.9-3.93-1.34-1.35a1.81,1.81,0,0,0,1.27.59,1.88,1.88,0,0,0,1.31-.47l.06-.06a1.84,1.84,0,0,0,.56-1.25,1.86,1.86,0,0,0-.49-1.32l1.25,1.26,3.9,3.92A1.84,1.84,0,0,1,455.7,260.67Z"/><path class="cls-3" d="M446,255.37l1.37-1.35a1.84,1.84,0,0,0-.59,1.28,1.87,1.87,0,0,0,.49,1.33,1.81,1.81,0,0,0,1.27.59,1.88,1.88,0,0,0,1.31-.47L448.65,258l-3.92,3.9a1.86,1.86,0,0,1-1.37.53,1.77,1.77,0,0,1-1.23-.53,1.85,1.85,0,0,1,0-2.62Z"/><path class="cls-3" d="M455.2,251.47l-3.93,3.91L450,256.69a1.84,1.84,0,0,0,.56-1.25,1.86,1.86,0,0,0-.49-1.32h0a1.87,1.87,0,0,0-1.28-.58,1.82,1.82,0,0,0-1.32.49l1.25-1.25,3.93-3.91a1.85,1.85,0,0,1,2.61,2.61Z"/><path class="cls-3" d="M163,80.06a1.88,1.88,0,0,0,.54,1.31l-1.31-1.21-4.05-3.77a1.84,1.84,0,0,1,2.51-2.7l4.05,3.77,1.4,1.29A1.85,1.85,0,0,0,163,80.06Z"/><path class="cls-3" d="M172.13,85.08a1.84,1.84,0,0,1-3.1,1.36L165,82.67l-1.4-1.3a1.84,1.84,0,0,0,1.3.54,1.86,1.86,0,0,0,1.29-.52l.05-.06a1.82,1.82,0,0,0,.51-1.27,1.84,1.84,0,0,0-.54-1.3l1.3,1.21,4,3.76A1.84,1.84,0,0,1,172.13,85.08Z"/><path class="cls-3" d="M162.27,80.16l1.31-1.4a1.84,1.84,0,0,0-.54,1.3,1.88,1.88,0,0,0,.54,1.31,1.84,1.84,0,0,0,1.3.54,1.86,1.86,0,0,0,1.29-.52L165,82.67l-3.77,4a1.84,1.84,0,0,1-1.35.59,1.81,1.81,0,0,1-1.25-.49,1.85,1.85,0,0,1-.1-2.61Z"/><path class="cls-3" d="M171.26,75.91,167.49,80l-1.27,1.36a1.82,1.82,0,0,0,.51-1.27,1.84,1.84,0,0,0-.54-1.3h0a1.85,1.85,0,0,0-2.6,0l1.2-1.3,3.77-4.06a1.85,1.85,0,0,1,2.71,2.51Z"/><path class="cls-3" d="M401.8,122.79a1.84,1.84,0,0,0,.88,1.1l-1.59-.8-4.94-2.49a1.84,1.84,0,0,1,1.66-3.29l4.94,2.49,1.7.86a1.84,1.84,0,0,0-2.49.73A1.83,1.83,0,0,0,401.8,122.79Z"/><path class="cls-3" d="M411.92,125.09a1.8,1.8,0,0,1-.12,1.34,1.84,1.84,0,0,1-2.48.82l-4.93-2.5-1.71-.86a1.83,1.83,0,0,0,1.4.16,1.85,1.85,0,0,0,1.09-.85.3.3,0,0,0,0-.08,1.82,1.82,0,0,0,.13-1.36,1.84,1.84,0,0,0-.88-1.1l1.59.8L411,124A1.83,1.83,0,0,1,411.92,125.09Z"/><path class="cls-3" d="M401.09,123.09l.87-1.7a1.84,1.84,0,0,0,2.12,2.66,1.85,1.85,0,0,0,1.09-.85l-.78,1.55-2.5,4.94a1.83,1.83,0,0,1-1.14.94,1.77,1.77,0,0,1-1.33-.12,1.85,1.85,0,0,1-.82-2.48Z"/><path class="cls-3" d="M408.55,116.52l-2.5,4.94-.84,1.66a1.82,1.82,0,0,0,.13-1.36,1.84,1.84,0,0,0-.88-1.1h0a1.84,1.84,0,0,0-2.49.73l.79-1.59,2.5-4.94a1.85,1.85,0,0,1,3.3,1.66Z"/><path class="cls-4" d="M90.82,149.33s-2,2.93,2.79,7a1.81,1.81,0,0,1,.63,1.54l-1,12.59a3.44,3.44,0,0,1-2.63,3.09c-4.69,1.11-22.5-4.14-24-6.37-.84-1.23-1.26-2.38-.65-3.74l5.19-11.52a1.83,1.83,0,0,1,1.3-1c6.15-1.26,5.49-4.73,5.49-4.73"/><path class="cls-3" d="M71.21,151a.56.56,0,0,1,.34,0,.72.72,0,0,1,.21.11l0,.06.08.09.1.13.2.26.39.49a12.21,12.21,0,0,0,.86.91,14.87,14.87,0,0,0,2,1.59A18.28,18.28,0,0,0,80,156.88,25.16,25.16,0,0,0,85,158a34.29,34.29,0,0,0,5.17.18,33.3,33.3,0,0,1-5.19.07,25.06,25.06,0,0,1-5.15-.85A18.8,18.8,0,0,1,75,155.28a15.54,15.54,0,0,1-2.14-1.58q-.5-.44-1-.93l-.45-.5-.21-.25-.1-.12,0,0h0a.53.53,0,0,0,.17.09.38.38,0,0,0,.3,0,.5.5,0,0,1-.64-.29A.49.49,0,0,1,71.21,151Z"/><path class="cls-5" d="M91.85,160l-.73,9.68a2.17,2.17,0,0,1-2.22,1.85c-3.5,0-12.69-1.06-20.06-5.39a1.94,1.94,0,0,1-.79-2.22l2.35-5A2.24,2.24,0,0,1,73,157.68l3.52.53a8.52,8.52,0,0,0,5-.7c2.22-1.07,6-2.09,9.45.83A2.28,2.28,0,0,1,91.85,160Z"/><path class="cls-4" d="M85.81,142.33c-.64-.14-1.28-.25-1.89-.33.17.55.32,1.1.48,1.63.39,1.41.75,2.75,1.06,4-.27,0-.54-.1-.81-.16q-.72-.16-1.38-.36c-.28-1.17-.6-2.41-1-3.7-.14-.5-.28-1-.42-1.54-2.71,0-4.73.74-5,2-.41,1.8,2.61,4,6.82,5.09l.59.14c.55.12,1.09.22,1.61.28,3.83.54,7-.2,7.33-1.86C93.65,145.68,90.33,143.34,85.81,142.33Z"/><path class="cls-4" d="M83.27,147.11c-2.67-.79-4.53-2-4.33-2.82.15-.67,1.49-1,3.38-.88C82.67,144.7,83,145.94,83.27,147.11Z"/><path class="cls-4" d="M91.17,147c-.21.93-2.69,1.17-5.71.61-.31-1.25-.67-2.59-1.06-4l1.06.21C88.83,144.6,91.39,146,91.17,147Z"/><path class="cls-4" d="M83.7,149c1.11,5.09,1.47,8.47,1.28,8.55"/><path class="cls-4" d="M85.9,149.42a75.07,75.07,0,0,1,1.47,7.47"/><path class="cls-4" d="M85.46,147.63c-.31-1.25-.67-2.59-1.06-4-.16-.53-.31-1.08-.48-1.63-2.46-8.35-6.37-18.66-12.11-26.66-6.13-8.55-15.32-19-16-19.93.4.88,8.5,11.72,14.52,20.5,5.58,8.14,9.29,17.93,11.6,26,.14.52.28,1,.42,1.54.35,1.29.67,2.53,1,3.7"/><polygon class="cls-3" points="77.88 131.12 70.77 128.14 78.2 130.18 77.88 131.12"/><path class="cls-4" d="M80.77,138.2s-9.34-2.69-11.6-5.24l5.8.56a20.74,20.74,0,0,1-6.84-4.12c-3.77-3.24-5.56-11.63-5.56-11.63S54.84,109,55,106.29l5.09.83A13.3,13.3,0,0,1,52,97.69a62.93,62.93,0,0,1,0-13.54s8.67,13.54,17.22,18.91S84,123.65,81.43,128.14a18.5,18.5,0,0,0,2.36-5.56s1.33,10.35-1.22,15.11"/><polygon class="cls-3" points="62.19 116.88 69.2 120.07 61.84 117.81 62.19 116.88"/><polygon class="cls-3" points="68.45 101.82 69.05 109.5 67.47 101.96 68.45 101.82"/><polygon class="cls-3" points="70.72 103.5 71.32 111.17 69.73 103.64 70.72 103.5"/><path class="cls-3" d="M360.6,90.93c1.62.91,3.18,1.91,4.77,2.87l4.66,3c3.08,2,6.12,4.2,9.13,6.26a25.79,25.79,0,0,0,9.8,4.23,18.89,18.89,0,0,0,5.36.27,12.85,12.85,0,0,0,5.21-1.44l.07.07a8.44,8.44,0,0,1-2.5,1.23,15.84,15.84,0,0,1-2.7.65,18.77,18.77,0,0,1-5.55,0,25.27,25.27,0,0,1-10.23-4.16c-3.05-2.11-6-4.29-9.05-6.44l-9-6.45Z"/><path class="cls-4" d="M342.7,86.48s-3.33-3.23,2.51-4.85a25,25,0,0,1,12,3.69c5.93,3.68,18.89,12.6,28.6,13.83a19.85,19.85,0,0,1,2-9.74c3.36-7.21,9.44-11,15.08-8.42S409.38,91.1,406,98.32c-2.51,5.39-6.92,9.25-11.23,9.68L389,114.78s-2.33,1.61-17.24-12S346.2,89.27,346.2,89.27s-5.84.63-2.43-4"/><path class="cls-4" d="M354.76,91.52s-2.18-3.78,2.4-6.2"/><path class="cls-4" d="M355.7,84.48s-2.14-10.84,8-13.53"/><path class="cls-4" d="M350.15,82.37s-5-10.8,6.47-14.93c0,0,1.43-1.34,15.89,9.34,0,0,10.11,5.4,24.77,3.6"/><path class="cls-4" d="M356.75,76.14s-1.25-3.36-7.69-1.63"/><path class="cls-4" d="M355.7,80.92a5.88,5.88,0,0,0-6.28-1.37"/><path class="cls-4" d="M385.76,99.15c0,2.49,4.56,9.21,12.56,1.85,5.69-5.23,4.88-10,3.79-12.54a3.07,3.07,0,0,0-2.79-2c-2,.09-6.4.78-8.27,8a5.28,5.28,0,0,0,.79,3.83c1.12,1.17,3.65,1.56,5.93-1.54,1.64-2.25,1.08-3.69.51-4.67-2.19-3.71-7.74,4.35-6.44,6.21"/><path class="cls-3" d="M262.6,61.19a38.23,38.23,0,0,0-9.16,12,.45.45,0,0,1-.8,0,38,38,0,0,0-9.56-11.69.43.43,0,0,1,0-.72c5-3.3,8.23-9.32,9.33-11.55a.44.44,0,0,1,.8,0c1.08,2.21,4.29,8.1,9.32,11.22A.45.45,0,0,1,262.6,61.19Z"/><path class="cls-6" d="M252,52.7a.32.32,0,0,1,.56.19V69.53a.31.31,0,0,1-.56.19l-1.11-2A20.94,20.94,0,0,0,246.06,62l-.68-.57a.32.32,0,0,1,0-.39l1.31-1.16a21.29,21.29,0,0,0,4.48-5.64Z"/><circle class="cls-7" cx="252.6" cy="424.13" r="17.83"/><circle class="cls-8" cx="252.6" cy="424.07" r="28.44"/><circle class="cls-9" cx="252.6" cy="424.1" r="20.39"/><path class="cls-10" d="M247.2,423.88l5-.05c0-.18.37-5.19.37-5.19L237,407Z"/><path class="cls-6" d="M252.08,423.62c0-.09.37-4.91.37-4.91L237.1,407.12Z"/><path class="cls-10" d="M252.83,418.71s0,4.82,0,5.2l5,.39s10.65-15.16,11.34-16.12Z"/><path class="cls-6" d="M253.05,423.76c.09-.05,4.76.38,4.76.38l11.29-15.85Z"/><path class="cls-10" d="M252.38,429.61s0-4.81,0-5.19l-5-.39S236.68,439.18,236,440.15Z"/><path class="cls-6" d="M252.16,424.57c-.09.05-4.76-.38-4.76-.38L236.11,440Z"/><path class="cls-10" d="M257.88,424.45l-5,.05c0,.17-.38,5.19-.38,5.19l15.62,11.63C267.51,440.35,257.88,424.45,257.88,424.45Z"/><path class="cls-6" d="M253,424.7c0,.09-.36,4.92-.36,4.92L268,441.2Z"/><path class="cls-11" d="M258,418.63l-5.35,4.92-5.35-4.94s5-25.67,5.34-27.31C253,392.86,258,418.63,258,418.63Z"/><path class="cls-6" d="M252.64,423.19c0-.13-5.07-4.66-5.07-4.66l5.1-27Z"/><path class="cls-11" d="M247.17,418.91l4.93,5.33-4.92,5.37-27.32-5.27Z"/><path class="cls-6" d="M251.75,424.29c-.14,0-4.65,5.08-4.65,5.08l-27-5Z"/><path class="cls-11" d="M258,429.61l-4.93-5.33,4.92-5.37,27.32,5.27Z"/><path class="cls-6" d="M253.46,424.23c.14,0,4.65-5.08,4.65-5.08l27,5Z"/><path class="cls-11" d="M247.32,429.76l5.35-4.92,5.35,4.94s-5,25.67-5.34,27.31C252.37,455.53,247.32,429.76,247.32,429.76Z"/><path class="cls-6" d="M252.71,425.19c0,.14,5.07,4.67,5.07,4.67l-5.1,27Z"/><path class="cls-12" d="M216.92,428.81a36,36,0,0,0,71.35,0"/><path class="cls-12" d="M217.27,417.14a36,36,0,0,1,70.67,0"/><line class="cls-7" x1="265.02" y1="400.65" x2="263.21" y2="404.03"/><line class="cls-7" x1="241.9" y1="443.89" x2="240.09" y2="447.27"/><line class="cls-7" x1="242.58" y1="404.04" x2="240.82" y2="400.64"/><line class="cls-7" x1="265.03" y1="447.29" x2="263.26" y2="443.88"/><line class="cls-7" x1="272.53" y1="413.64" x2="275.91" y2="411.82"/><line class="cls-7" x1="229.5" y1="436.75" x2="232.88" y2="434.93"/><line class="cls-7" x1="229.16" y1="411.84" x2="232.56" y2="413.63"/><line class="cls-7" x1="272.52" y1="434.73" x2="275.92" y2="436.52"/><path class="cls-3" d="M253.8,378.14h2.38v.32a3.39,3.39,0,0,1-.9.44V386h-.63l-4-6.06-.43-.86h0l.1.86v5.23a3,3,0,0,1,.85.38v.32h-2.38v-.32a3.42,3.42,0,0,1,.43-.21c.15-.06.31-.12.48-.17v-6.31c-.15-.05-.3-.12-.44-.18l-.4-.2v-.31h1.86l3.46,5.23.51.94h0l0-.94V378.9l-.45-.21c-.14-.07-.27-.15-.4-.23Z"/><path class="cls-3" d="M250.1,468.73a1.11,1.11,0,0,0,.34.22,1.62,1.62,0,0,0,.62.09,2.29,2.29,0,0,0,.66-.09,1.52,1.52,0,0,0,.54-.27,1.24,1.24,0,0,0,.35-.44,1.28,1.28,0,0,0,.14-.59,1.07,1.07,0,0,0-.27-.74,3,3,0,0,0-.67-.53c-.27-.15-.56-.3-.88-.45a4.45,4.45,0,0,1-.87-.52,2.6,2.6,0,0,1-.67-.73,2.2,2.2,0,0,1-.11-1.88,1.79,1.79,0,0,1,.47-.62,2.08,2.08,0,0,1,.72-.39,3,3,0,0,1,.93-.14,6.62,6.62,0,0,1,1.23.11,3.24,3.24,0,0,1,.87.26,3.39,3.39,0,0,1,0,.43c0,.17,0,.34-.07.51s0,.35-.08.51-.06.31-.09.44H253l-.45-1.51a1.9,1.9,0,0,0-.5-.13,4.45,4.45,0,0,0-.65,0,1.29,1.29,0,0,0-.91.31,1.25,1.25,0,0,0-.07,1.63,2.69,2.69,0,0,0,.68.55c.27.16.56.32.88.47a6,6,0,0,1,.88.52,2.86,2.86,0,0,1,.68.71,1.79,1.79,0,0,1,.27,1,2.19,2.19,0,0,1-.18.9,2,2,0,0,1-.52.69,2.4,2.4,0,0,1-.84.44,3.52,3.52,0,0,1-1.12.16,4.39,4.39,0,0,1-1.25-.17,2.4,2.4,0,0,1-.78-.35c0-.12,0-.27,0-.45s0-.36.07-.55.05-.36.08-.54.06-.33.09-.45h.28Z"/><path class="cls-3" d="M216.76,420.29l-.42-.09-.44-.16v-.29h2.24V420a4.37,4.37,0,0,1-.72.25l-1.67,6.46-.62.12-1.61-5.44-1.58,5.32-.61.12-1.77-6.58-.39-.11a2.35,2.35,0,0,1-.37-.14v-.29h2.6V420l-.39.14-.43.11,1,4,.22,1.3h0l.35-1.32,1.35-4.55h.34l1.45,4.55.29,1.3h0l.23-1.32Z"/><path class="cls-3" d="M292.61,419.46c0,.3,0,.59,0,.89s-.05.59-.08.89h-.29l-.45-1.21h-2.4V423h1.79l.43-.81h.28a20.55,20.55,0,0,1,0,2.22h-.28l-.43-.84h-1.79v3.07h2.53l.54-1.32h.28c.05.31.08.62.11.94s0,.63,0,1h-5.43v-.32a4.1,4.1,0,0,1,.91-.26v-6.52l-.46-.12-.45-.16v-.32Z"/><path class="cls-9" d="M324,408.7c19.81-1,28.73-10.91,28.73-10.91s.1,14.35-28.73,17.25"/><path class="cls-9" d="M308.05,415.23l16-1s1.47,7.26-23.46,4"/><path class="cls-9" d="M340.66,411.13l10.2-3.44s-4.33,11.92-34.5,11.11"/><path class="cls-9" d="M311,419l10.17,2s-3.47,5.84-22.32.61c0,0,16.17,3.54,17.27,4.33.36.26-3.71,5.86-17.63-2.13"/><path class="cls-9" d="M290.43,435.74s4.19,8.18,5.26,6.32-2.08-7-2.08-7c-.18-.32,5.84,8.53,6.95,7.71,1.38-1-2.64-6.92-2.64-6.92s6.93,7.89,7.9,6.26-4.27-8.63-4.27-8.63c8.44,10.44,14.4,7.65,14.4,7.65l-12-10.27c18.83,11.36,22.51,6.06,22.51,6.06l-18.59-9.2C328,438.09,336.08,430,336.08,430c-4.36-.83-24.89-5.78-24.89-5.78,28,8.14,32-1.09,32-1.09l-24.62-.29c28.36,2.06,30.78-7.45,30.78-7.45l-10.31,1"/><path class="cls-9" d="M305.63,427.19l5.56,3.46s-6.15,3.65-13.29-4"/><path class="cls-9" d="M303.92,430.87s1.66,1.9,1.58,3.35-7-1.56-9.86-5.16c0,0,5,4.39,3.63,6.3-1.86,2.64-5.71-3.84-6.24-5,0,0,2.23,3.15,1.21,4.51s-3.61-3.83-3.61-3.83,2.76,3.87,1.19,4.08-3.55-3.7-3.55-3.7c10.09-1.13,10.18-6.61,10.18-6.61.18-9.06,7.35-9.47,7.35-9.47,13.67-.7,20.83-9.07,20.83-9.07s-14.33,4.12-24.22,5.16-6.89,7.69-6.89,7.69"/><path class="cls-9" d="M290.43,434.68a1.45,1.45,0,0,1-.52,1.31c-.81.55-2.81-.84-2.81-.84"/><polygon class="cls-3" points="302.12 416.22 315.99 417.14 302.08 417.02 302.12 416.22"/><polygon class="cls-3" points="299.61 419.39 312.3 421.69 299.49 420.19 299.61 419.39"/><polygon class="cls-3" points="298.62 422.28 308.81 426.1 298.37 423.04 298.62 422.28"/><polygon class="cls-3" points="298.71 424.95 304.55 429.06 298.28 425.64 298.71 424.95"/><polygon class="cls-3" points="297.18 427.67 300.95 431.52 296.65 428.27 297.18 427.67"/><polygon class="cls-3" points="294.81 429.48 297.17 432.73 294.21 430.01 294.81 429.48"/><polygon class="cls-3" points="295.25 433.86 298.28 438.98 294.59 434.32 295.25 433.86"/><polygon class="cls-3" points="299.77 434.57 302.52 438.13 299.18 435.12 299.77 434.57"/><polygon class="cls-3" points="305.79 433.94 309.05 437.95 305.21 434.49 305.79 433.94"/><polygon class="cls-3" points="310.74 430.62 316.93 435.02 310.31 431.29 310.74 430.62"/><polygon class="cls-3" points="314.91 426.99 324.03 430.44 314.65 427.75 314.91 426.99"/><path class="cls-3" d="M319,411.51a56.1,56.1,0,0,0,9.78-.16c1.63-.16,3.25-.42,4.85-.74a41.14,41.14,0,0,0,4.75-1.29,38.8,38.8,0,0,1-4.7,1.48c-1.6.39-3.22.72-4.85.95a57.24,57.24,0,0,1-9.89.56Z"/><path class="cls-3" d="M322.56,416.48a28.74,28.74,0,0,0,3.83,0c1.28-.07,2.57-.2,3.84-.38s2.55-.42,3.81-.73,2.51-.64,3.75-1c-1.22.44-2.45.87-3.7,1.22s-2.51.66-3.79.92-2.57.45-3.87.59a28.52,28.52,0,0,1-3.94.17Z"/><path class="cls-3" d="M321.24,420.68a23.17,23.17,0,0,0,3.15.39c1.07.06,2.14.08,3.21.05a39.54,39.54,0,0,0,6.41-.71,40.55,40.55,0,0,1-6.38,1.11c-1.08.1-2.17.15-3.26.15a26.12,26.12,0,0,1-3.28-.2Z"/><path class="cls-3" d="M316.33,423.14a69.07,69.07,0,0,0,8,1.69,59.89,59.89,0,0,0,8.14.72,60.7,60.7,0,0,1-8.19-.32,73,73,0,0,1-8.12-1.31Z"/><path class="cls-9" d="M181.73,408.28c-19.81-1.21-28.6-11.26-28.6-11.26s-.27,14.35,28.52,17.6"/><path class="cls-9" d="M197.61,415l-16-1.23s-1.57,7.24,23.4,4.3"/><path class="cls-9" d="M165.05,410.5l-10.16-3.56s4.19,12,34.37,11.54"/><path class="cls-9" d="M194.62,418.79l-10.2,1.9s3.39,5.88,22.31.89c0,0-16.21,3.35-17.33,4.12-.35.25,3.64,5.9,17.66-1.91"/><path class="cls-9" d="M215,435.73s-4.28,8.13-5.33,6.26,2.16-7,2.16-7c.19-.32-5.94,8.46-7,7.62-1.37-1,2.72-6.89,2.72-6.89s-7,7.81-8,6.16,4.38-8.57,4.38-8.57c-8.58,10.33-14.5,7.47-14.5,7.47l12.16-10.12c-19,11.13-22.59,5.78-22.59,5.78l18.7-9c-20.28,10.11-28.26,2-28.26,2,4.37-.78,25-5.47,25-5.47-28.12,7.79-31.94-1.48-31.94-1.48H187c-28.39,1.7-30.69-7.83-30.69-7.83l10.3,1.13"/><path class="cls-9" d="M199.88,427l-5.6,3.4s6.11,3.73,13.34-3.87"/><path class="cls-9" d="M201.55,430.7s-1.69,1.88-1.62,3.33,7-1.47,9.92-5c0,0-5,4.32-3.71,6.25,1.83,2.66,5.75-3.78,6.3-4.9,0,0-2.27,3.12-1.26,4.5s3.66-3.78,3.66-3.78-2.82,3.83-1.25,4.06,3.6-3.66,3.6-3.66c-10.08-1.26-10.09-6.73-10.09-6.73-.08-9.06-7.24-9.56-7.24-9.56-13.66-.88-20.72-9.33-20.72-9.33s14.28,4.3,24.16,5.46,6.79,7.77,6.79,7.77"/><path class="cls-9" d="M215,434.68a1.47,1.47,0,0,0,.51,1.31c.81.56,2.82-.8,2.82-.8"/><polygon class="cls-3" points="203.55 416.87 189.65 416.82 203.53 416.07 203.55 416.87"/><polygon class="cls-3" points="206.11 420.07 193.28 421.42 206 419.28 206.11 420.07"/><polygon class="cls-3" points="207.2 422.94 196.71 425.87 206.95 422.18 207.2 422.94"/><polygon class="cls-3" points="207.25 425.54 200.94 428.88 206.83 424.85 207.25 425.54"/><polygon class="cls-3" points="208.84 428.19 204.5 431.38 208.32 427.58 208.84 428.19"/><polygon class="cls-3" points="211.27 429.96 208.27 432.64 210.67 429.42 211.27 429.96"/><polygon class="cls-3" points="210.83 434.26 207.09 438.87 210.18 433.8 210.83 434.26"/><polygon class="cls-3" points="206.23 435.01 202.85 437.97 205.65 434.45 206.23 435.01"/><polygon class="cls-3" points="200.21 434.31 196.33 437.72 199.64 433.75 200.21 434.31"/><polygon class="cls-3" points="195.15 431.04 188.49 434.69 194.73 430.36 195.15 431.04"/><polygon class="cls-3" points="190.85 427.45 181.44 430.01 190.61 426.68 190.85 427.45"/><path class="cls-3" d="M186.76,412a57.12,57.12,0,0,1-9.88-.69,46.71,46.71,0,0,1-4.84-1,39,39,0,0,1-4.69-1.54,39.33,39.33,0,0,0,4.74,1.35c1.6.34,3.21.62,4.84.8a56.17,56.17,0,0,0,9.78.29Z"/><path class="cls-3" d="M183.15,416.88a28.47,28.47,0,0,1-3.94-.22c-1.3-.15-2.59-.37-3.86-.63s-2.54-.59-3.78-1-2.47-.8-3.68-1.26c1.23.39,2.47.77,3.73,1.07s2.53.56,3.8.77,2.56.35,3.84.43a28.82,28.82,0,0,0,3.83,0Z"/><path class="cls-3" d="M184.49,421.09a24.16,24.16,0,0,1-3.28.15c-1.09,0-2.17-.07-3.25-.18a41.34,41.34,0,0,1-6.37-1.19,40.7,40.7,0,0,0,6.4.79c1.07,0,2.14,0,3.21,0a23.17,23.17,0,0,0,3.15-.34Z"/><path class="cls-3" d="M189.43,423.59a68.3,68.3,0,0,1-8.14,1.21,60.52,60.52,0,0,1-8.19.23,61.71,61.71,0,0,0,8.15-.62,69.27,69.27,0,0,0,8-1.59Z"/></svg>